Patient4_TMGait_0pt5_01_left_16_EMG.mot
version=1
nRows=33
nColumns=33
inDegrees=no
endheader
time	1LAddLong	2LGlutMax	3LGlutMed	4LIliopsoas	5LSemiMemb	6LBicFemLong	7LRecFem	8LVastMed	9LVastLat	10LGasMed	11LTibAnt	12lTibPost	13LPeroneusLong	14LSol	15LExtDigLong	16LFlexDigLong	17RAddLong	18RGlutMax	19RGlutMed	20RIliopsoas	21RSemiMemb	22RBicFemLong	23RRecFem	24RVastMed	25RVastLat	26RGasMed	27RTibAnt	28RTibPost	29RPeroneusLong	30RSol	31RExtDigLong	32RFlexDigLong
21.4	0.011139	-0.11017	-0.061951	0.002441	0.006104	0.014343	0.054321	0.020599	0.20721	-0.037079	-0.010071	0.003204	0.036926	-0.006866	-0.057983	0.003357	-0.01358	-0.09613	-0.1738	0.030518	0.054779	0.072327	0.32822	0.1149	0.026855	-0.017395	-0.021515	-0.018158	0.40161	0.13153	0.000305	-0.000916
21.401	0.005646	-0.12711	-0.068359	0.008545	0.000153	0.025024	0.03067	0.01358	0.20233	-0.036774	-0.045319	0.004883	0.041046	-0.066528	-0.18005	-0.017548	-0.001221	-0.077972	-0.007477	-0.028687	0.046082	-0.019226	0.10635	-0.018311	0.041351	-0.026855	-0.017548	-0.021057	0.43472	0.23041	-0.003052	-0.000916
21.402	0.002289	-0.15518	-0.076141	0.018005	-0.003967	0.036774	0.051575	0.013885	0.19714	-0.001831	-0.005798	-0.001678	0.06958	-0.027924	-0.20706	0.003967	0.001984	-0.1004	-0.1091	-0.02121	0.03479	-0.041351	-0.19394	-0.057068	0.054321	0.038605	-0.024872	-0.013123	-0.28351	0.24124	-0.006256	-0.001831
21.403	0.00412	-0.15427	-0.065002	0.022736	-0.001068	0.026855	0.061493	0.010223	0.20493	0.007782	0.057983	-0.000458	0.097961	0.014343	-0.15106	0.001068	-0.003357	-0.13748	-0.27679	0.020447	0.024261	-0.041046	-0.2739	-0.006256	0.17883	0.034027	-0.021362	-0.011902	-0.84213	0.079651	-0.003815	-0.011139
21.404	0.006256	-0.11276	-0.065765	0.005341	-0.001221	0.032501	0.061493	0.013428	0.19348	0.021667	0.11795	-0.001984	0.058136	0.032959	-0.049744	0.005798	0.000153	-0.13336	0.002594	0.001678	0.011749	-0.049133	-0.024719	0.047455	0.15839	0.034637	-0.058289	-0.035858	0.17716	-0.21332	-0.003052	0.000458
21.405	-0.007629	-0.121	-0.068665	0.023041	-0.00946	0.039215	0.071564	0.016785	0.18967	-0.01236	0.14267	-0.001984	0.044403	0.023499	0.026703	0.008087	0.005798	-0.09903	-0.14267	-0.005646	-0.03891	-0.041656	0.072174	0.062714	0.12283	0.034485	-0.085602	-0.014954	1.4508	-0.37643	0.001984	-0.007172
21.406	0.012207	-0.11017	-0.050964	0.013885	-0.010834	0.033875	0.063782	0.010376	0.18723	-0.040741	0.055847	0.000763	0.072327	0.01297	0.22079	0.014954	0.010529	-0.08316	0.1239	0.043793	-0.059357	-0.044556	0.11139	-0.37552	0.023499	0.009308	0.047455	0.050354	0.47089	-0.20233	-0.003052	-0.000305
21.407	0.001984	-0.11429	-0.053253	0.02594	-0.002594	0.01709	0.037689	0.010986	0.18295	-0.034485	-0.010071	-0.002899	0.082245	0.001068	0.29434	0.000153	0.007935	-0.19653	-0.024414	0.071869	-0.047302	-0.024567	0.15121	-0.38879	-0.056152	0.002289	0.14145	0.014648	0.51376	0.060425	-0.002136	-0.002594
21.408	0.002594	-0.092316	-0.055695	0.011292	-0.000458	0.010071	0.055237	0.014191	0.17456	-0.031128	-0.000153	0.005188	0.059357	0.007629	0.74478	0.003204	0.016327	-0.10315	0.15198	0.016937	-0.03418	-0.028381	0.20279	-0.16281	-0.077057	0.00473	0.11032	0.004578	-0.46341	0.16922	0	0.002441
21.409	0.017548	-0.072021	-0.04715	0.014954	0.011597	0.025635	0.05188	0.015564	0.17197	-0.017395	-0.077667	0.003204	0.031586	0.024567	0.28717	-0.002289	-0.001831	-0.020905	0.2977	-0.019073	-0.027618	-0.000305	0.14465	-0.056915	-0.11078	0.009155	-0.040131	0.00946	0.2623	-0.068665	-0.003967	0.00824
21.41	-0.006104	-0.075684	-0.045624	0.014648	0.012817	0.020905	0.037231	0.007172	0.17288	-0.032196	-0.12192	0.002594	0.039063	0.12909	0.0383	-0.000305	-0.006561	-0.059204	0.17075	0.010376	-0.013885	0.00473	0.12894	0.032806	-0.17914	0.013885	-0.081329	0.007019	1.0899	-0.22705	-0.000916	0.00412
21.411	0.00946	-0.077972	-0.049591	0.016937	0.00946	0.047607	0.026398	0.01358	0.15595	-0.062714	-0.09613	0.011749	0.10941	0.14938	0.076447	0.006714	0.008392	-0.098877	0.34149	-0.013733	-0.028076	0.00473	-0.047913	0.10162	-0.090179	0.014496	-0.084839	0.00412	-0.40619	-0.25833	-0.00351	0.007477
21.412	0.004425	-0.047607	-0.03891	0.017548	0.001984	0.043793	0.03006	0.008545	0.15808	-0.074768	-0.087128	0.004578	0.14404	0.073242	-0.18372	-0.002747	-0.004883	-0.091858	-0.077209	-0.000763	-0.033417	-0.018616	-0.48477	0.20035	0.22507	0.014801	-0.028381	0.00061	-0.059662	-0.26596	-0.002747	0.00473
21.413	0.010223	-0.038605	-0.036316	0.001984	-0.016479	0.016327	0.029144	0.010071	0.15488	-0.046082	0.13016	0.010376	0.1207	0.050049	-0.39597	0.002136	0.00473	-0.047607	-0.13931	0.058136	-0.02533	-0.005798	-0.48996	0.30838	0.28763	0.00885	0.11597	0.005951	-1.0823	-0.17975	-0.001678	0.000305
21.414	0.014648	-0.007782	-0.008087	-0.010681	0.008698	-0.000153	0.016479	0.008392	0.15595	-0.023956	0.23926	0.003204	0.080414	0.048218	-0.47531	-0.007019	0.01358	-0.026093	-0.51559	0.092621	-0.034943	-0.040894	-0.3067	0.19257	0.27451	-0.002136	0.099945	-0.006866	-1.2169	-0.036621	-0.005493	-0.001373
21.415	0.003815	-0.043793	-0.042267	-0.003967	-0.014343	-0.023499	0.020294	0.004272	0.1561	-0.022888	0.16388	0.005035	0.034943	0.055237	-0.17059	0.010834	0.009155	-0.10254	-0.33646	0.056915	-0.031128	-0.036316	-0.16327	0.14648	0.21423	0.005798	-0.028687	-0.004578	0.19104	-0.007324	-0.003357	0.005493
21.416	0.00946	-0.061493	-0.031738	0.005798	-0.015869	-0.024414	0.039825	0.010834	0.15762	-0.003052	0.049896	0.003662	-0.004272	0.014038	-0.030823	0.006409	0.009766	-0.11368	-0.031891	-0.030975	-0.032654	-0.042725	-0.079193	0.10666	0.1741	0.000153	-0.079346	-0.004883	0.22232	0.020142	-0.003357	0.002594
21.417	0.006561	-0.004425	-0.029907	0.017548	-0.02533	-0.040436	0.02655	0.007019	0.14679	-0.03479	-0.1889	0.004425	0.03891	-0.053864	-0.21378	0.003815	0.015106	-0.050507	0.1294	-0.046234	-0.034027	-0.042267	-0.024872	0.027466	0.1207	-0.000305	-0.14221	-0.008545	0.3595	0.02655	-0.003052	0.007019
21.418	-0.001831	-0.045319	-0.037689	-0.004272	-0.013428	-0.001984	0.023193	0.006561	0.1442	-0.044861	-0.17532	0.009613	0.039063	-0.076447	-0.18204	0.000305	0.016174	-0.030212	0.030823	0.025482	-0.036011	-0.019836	0.011902	0.036774	0.097198	0.008087	-0.16571	0.001221	2.0226	-0.042267	0.001526	-0.002899
21.419	0.011444	-0.036316	-0.046234	-0.006714	-0.006866	-0.031281	0.017242	0.011749	0.14145	-0.030975	-0.057983	0.005341	0.033112	-0.16037	-0.12375	0.003662	0.01709	-0.063171	0.001678	0.005798	-0.037079	-0.030823	0.030518	0.027313	0.019379	0.001221	0.004425	-0.006561	1.5063	-0.014038	-0.005341	-0.000153
21.42	-0.002899	-0.007629	-0.045013	0.013885	0.001831	-0.034485	0.020142	0.011292	0.12604	-0.032349	-0.016327	0.006561	0.045624	-0.17242	-0.031128	0.001373	0.012665	-0.020447	-0.10437	0.005798	-0.035553	-0.007629	0.091553	0.016022	-0.051575	-0.007782	0.23163	-0.007935	-0.59738	0.061493	-0.002136	-0.007477
21.421	0.005341	-0.010223	-0.04303	-0.017548	-0.009613	-0.020905	0.019379	0.010529	0.1355	-0.023193	0.021362	-0.000458	0.056915	-0.12573	0.039978	0.00473	0.007019	-0.18326	-0.19852	0.027771	-0.037079	-0.018921	0.08316	0.028076	-0.027466	-0.004272	0.24124	-0.002899	-0.86884	0.00946	-0.000305	-0.008087
21.422	0.010376	-0.0177	-0.056915	-0.002747	-0.023804	-0.026093	0.005798	0.006866	0.13321	-0.026093	0.001984	0.002747	0.10086	-0.1001	0.036163	0.006409	0.013123	-0.1506	-0.38238	-0.040131	-0.038605	-0.018005	0.1648	-0.031586	-0.001526	-0.004578	0.06073	-0.004425	-0.92682	-0.028534	-0.001526	-0.006714
21.423	-0.005493	-0.024414	-0.044098	0.016632	-0.034332	-0.018311	0.018616	0.001984	0.12726	-0.018005	-0.029297	0.002289	0.12054	-0.000916	0.072174	0.000916	0.014648	-0.18509	-0.20859	-0.10468	-0.037689	0.006104	0.24246	-0.043945	0.02243	-0.003815	-0.020142	0.000458	-1.021	0.002594	-0.004272	-0.010834
21.424	0.019073	-0.052185	-0.052948	0.019836	-0.054321	-0.009003	0.021515	0.000305	0.12955	-0.041504	-0.052948	0.007935	0.10361	0.045929	0.067749	0.006866	0.009155	-0.15198	0.086517	-0.090332	-0.027618	0.014343	0.18738	-0.053558	-0.011749	0.003967	-0.031433	-0.00061	-0.63629	-0.097961	-0.002594	-0.006866
21.425	0.005798	0.011139	-0.039673	0.019226	0.010681	0.01236	0.022125	0.004883	0.11505	-0.065765	-0.051727	0.001373	0.11643	-0.020142	-0.045776	0.00473	-0.004883	-0.1329	0.10696	-0.094757	-0.023804	0.001984	0.10178	-0.036011	-0.071259	0.007935	-0.12054	0.000153	0.36041	-0.12558	-0.001068	-0.004883
21.426	-0.000458	0.009766	-0.02243	0.005798	0.091095	0.030823	0.006866	0.000458	0.1091	-0.054932	-0.028229	0.010681	0.1062	-0.089264	-0.041046	0.000458	-0.009766	-0.11124	0.055542	-0.013428	-0.020599	0.013733	0.19089	-0.058594	-0.1062	0.001678	-0.49133	0.001831	0.52643	-0.060883	-0.003815	-0.008087
21.427	0.006409	0.046844	-0.049744	0.000153	-0.009155	0.023041	0.02182	0.001526	0.10315	-0.027771	0.002747	0.001678	0.079956	-0.10101	0.026855	0.000458	-0.003967	-0.092926	-0.020142	0.11078	-0.025787	0.023499	0.26047	-0.084991	-0.12802	-0.001221	-0.61752	0.001678	0.040436	-0.002136	-0.00473	-0.000305
21.428	0.001068	0.066376	-0.06424	0.012054	-0.000458	0.024719	0.015259	-0.003662	0.096893	-0.01236	0.021362	0.009613	0.051575	-0.061798	0.071716	0.010986	0.001831	-0.085907	-0.032806	0.14038	-0.031738	0.033112	0.19257	-0.12863	-0.18478	-0.004272	-0.40237	-0.002747	-0.49972	0.076599	-0.000916	-0.007324
21.429	0.01709	0.042267	-0.061646	0.007477	-0.002899	-0.010376	0.00412	-0.00061	0.112	-0.071716	0.025024	0.00351	0.064545	-0.07782	0.070343	0.004578	0.000305	-0.079041	-0.015411	0.10925	-0.02533	0.039215	-0.090179	-0.047302	-0.19196	-0.013428	-0.18463	-0.005493	-0.34561	0.14038	-0.000916	-0.000916
21.43	0.010681	0.065918	-0.028534	-0.012054	0.002136	-0.053406	0.003357	-0.002136	0.10269	-0.11124	0.024567	0.000916	0.083618	-0.079498	0.066223	0.001678	-0.009918	-0.038452	-0.14999	0.13092	-0.026855	0.028839	-0.28244	-0.019379	-0.27802	-0.012512	-0.030365	0.004578	-0.11902	0.10422	0.00061	0.00061
21.431	0.01297	0.039978	-0.050201	0.012817	0.054169	-0.041809	-0.005341	0.003204	0.10254	-0.067902	0.031891	0.001984	0.071716	-0.05661	0.053101	0.006561	0.014496	-0.077972	-0.16327	0.12146	-0.028534	0.008698	-0.25543	0.011139	-0.15198	0.007477	0.14099	0.003052	-0.08606	0.018311	-0.005798	-0.000458
21.432	0.019836	0.04425	-0.051575	0.008087	0.058899	-0.033112	0.010834	0.008392	0.10803	-0.03952	0.027771	0.006409	0.046387	-0.036621	0.045319	0.006104	0.002289	-0.086823	0.093842	0.072327	-0.028229	0.015411	-0.28412	0.14465	0.26825	0.006866	0.096893	0.001831	-0.046234	-0.058136	-0.000916	-0.007324
